<svg xmlns="http://www.w3.org/2000/svg" xmlns:xlink="http://www.w3.org/1999/xlink" width="24" height="26" viewBox="0 0 24 26">
    <defs>
        <path id="a" d="M.004 25.243V.026h23.158v25.217z"/>
    </defs>
    <g fill="none" fill-rule="evenodd">
        <mask id="b" fill="#fff">
            <use xlink:href="#a"/>
        </mask>
        <path fill="#666" d="M15.353 3.585a5.318 5.318 0 0 0-3.772-1.563A5.32 5.32 0 0 0 7.81 3.585a5.317 5.317 0 0 0-1.563 3.77 5.32 5.32 0 0 0 1.563 3.773 5.32 5.32 0 0 0 3.76 1.562h.023a5.32 5.32 0 0 0 3.76-1.562 5.32 5.32 0 0 0 1.562-3.772 5.317 5.317 0 0 0-1.562-3.771M11.58.025c2.024 0 3.856.821 5.183 2.148a7.307 7.307 0 0 1 2.147 5.183c0 2.023-.82 3.856-2.147 5.182a7.355 7.355 0 0 1-1.087.897 11.615 11.615 0 0 1 4.09 2.64 11.51 11.51 0 0 1 3.395 8.17.998.998 0 0 1-1.996 0 9.516 9.516 0 0 0-2.804-6.759 9.574 9.574 0 0 0-6.769-2.8h-.024a9.573 9.573 0 0 0-6.77 2.8 9.516 9.516 0 0 0-2.803 6.76.998.998 0 0 1-1.996 0c0-3.189 1.298-6.078 3.397-8.171a11.6 11.6 0 0 1 4.088-2.64 7.369 7.369 0 0 1-1.087-.897 7.308 7.308 0 0 1-2.147-5.182c0-2.024.821-3.856 2.147-5.183A7.308 7.308 0 0 1 11.581.026" mask="url(#b)"/>
    </g>
</svg>
